<svg width="32" height="29" viewBox="0 0 32 29" fill="none" xmlns="http://www.w3.org/2000/svg">
<path d="M1 1.17285H9.79808C11.3537 1.17285 12.8456 1.79081 13.9455 2.89078C15.0455 3.99076 15.6635 5.48264 15.6635 7.03824V27.5671C15.6635 26.4004 15.2 25.2815 14.375 24.4565C13.55 23.6315 12.4311 23.168 11.2644 23.168H1V1.17285Z" stroke="#2979FF" stroke-width="2" stroke-linecap="round" stroke-linejoin="round"/>
<path d="M30.3269 1.17285H21.5288C19.9732 1.17285 18.4814 1.79081 17.3814 2.89078C16.2814 3.99076 15.6635 5.48264 15.6635 7.03824V27.5671C15.6635 26.4004 16.1269 25.2815 16.9519 24.4565C17.7769 23.6315 18.8958 23.168 20.0625 23.168H30.3269V1.17285Z" stroke="#2979FF" stroke-width="2" stroke-linecap="round" stroke-linejoin="round"/>
</svg>
