<svg width="33" height="35" viewBox="0 0 33 35" fill="none" xmlns="http://www.w3.org/2000/svg">
<path d="M16.8458 1L20.8927 3.95218L25.9027 3.94293L27.4411 8.71017L31.4996 11.6469L29.9426 16.408L31.4996 21.1691L27.4411 24.1059L25.9027 28.8731L20.8927 28.8639L16.8458 31.816L12.7989 28.8639L7.78898 28.8731L6.25049 24.1059L2.19202 21.1691L3.749 16.408L2.19202 11.6469L6.25049 8.71017L7.78898 3.94293L12.7989 3.95218L16.8458 1Z" fill="#ECF3FF" stroke="#ECF3FF" stroke-width="2" stroke-linecap="round" stroke-linejoin="round"/>
<path d="M15.6538 2.19287L19.7007 5.14505L24.7106 5.1358L26.2491 9.90305L30.3076 12.8398L28.7506 17.6009L30.3076 22.362L26.2491 25.2987L24.7106 30.066L19.7007 30.0567L15.6538 33.0089L11.6069 30.0567L6.59696 30.066L5.05847 25.2987L1 22.362L2.55698 17.6009L1 12.8398L5.05847 9.90305L6.59696 5.1358L11.6069 5.14505L15.6538 2.19287Z" stroke="#2979FF" stroke-width="2" stroke-linecap="round" stroke-linejoin="round"/>
<path d="M10.2607 17.601L14.1127 21.453L21.8167 13.749" stroke="#2979FF" stroke-width="2" stroke-linecap="round" stroke-linejoin="round"/>
</svg>
