<svg width="200" height="45" viewBox="0 0 200 45" fill="none" xmlns="http://www.w3.org/2000/svg">
<path d="M136.777 0.34552H140.901C143.96 0.34552 145.971 2.19681 145.971 5.05357C145.971 7.91032 144.019 9.99511 140.811 9.99511H136.779L136.777 0.34552ZM138.911 8.40825H140.709C142.81 8.40825 143.754 6.99059 143.754 5.07259C143.754 3.4405 142.876 1.94186 140.72 1.94186H138.911V8.40825Z" fill="#212121"/>
<path d="M151.041 0.34552V9.99511H148.907V0.34552H151.041Z" fill="#212121"/>
<path d="M163.596 9.9951H162.019C161.926 9.66547 161.87 9.32675 161.85 8.98488C161.286 9.69966 160.273 10.1523 158.732 10.1523C155.668 10.1523 153.97 8.03659 153.97 5.28706C153.97 2.3898 155.801 0.207306 159.106 0.207306C161.784 0.207306 163.375 1.5773 163.638 3.2356H161.504C161.267 2.52082 160.657 1.74885 159.083 1.74885C156.865 1.74885 156.187 3.41668 156.187 5.20126C156.187 6.91674 156.941 8.58694 159.085 8.58694C161.106 8.58694 161.504 7.31463 161.504 6.32584V6.23772H159.073V4.62707H163.596V9.9951Z" fill="#212121"/>
<path d="M169.012 0.34552V9.99511H166.878V0.34552H169.012Z" fill="#212121"/>
<path d="M174.727 1.95378H171.483V0.34552H180.113V1.95378H176.871V9.99511H174.737L174.727 1.95378Z" fill="#212121"/>
<path d="M183.17 7.65775L182.292 9.99511H180.186L183.805 0.34552H186.485L190.26 9.99511H188.007L187.09 7.65775H183.17ZM186.618 6.0471C185.826 3.92896 185.335 2.62092 185.083 1.77509H185.069C184.808 2.70431 184.265 4.23631 183.63 6.0471H186.618Z" fill="#212121"/>
<path d="M192.558 0.34552H194.693V8.38684H200L199.749 9.99511H192.554L192.558 0.34552Z" fill="#212121"/>
<path d="M136.777 17.1167H144.067V18.7298H138.868V21.2196H143.73V22.8278H138.868V26.7687H136.777V17.1167Z" fill="#212121"/>
<path d="M148.786 17.1167V22.8755C148.786 24.7982 149.881 25.3582 151.055 25.3582C152.409 25.3582 153.28 24.7077 153.28 22.8755V17.1167H155.414V22.7802C155.414 26.0515 153.334 26.9021 151.017 26.9021C148.662 26.9021 146.633 26.0086 146.633 22.8278V17.1096L148.786 17.1167Z" fill="#212121"/>
<path d="M161.106 18.7298H157.859V17.1191H166.482V18.7298H163.247V26.7687H161.113L161.106 18.7298Z" fill="#212121"/>
<path d="M171.135 17.1167V22.8755C171.135 24.7982 172.23 25.3582 173.406 25.3582C174.758 25.3582 175.628 24.7077 175.628 22.8755V17.1167H177.763V22.7802C177.763 26.0515 175.685 26.9021 173.368 26.9021C171.011 26.9021 168.981 26.0086 168.981 22.8278V17.1096L171.135 17.1167Z" fill="#212121"/>
<path d="M183.248 22.8422V26.7663H181.154V17.1167H185.714C187.996 17.1167 189.222 18.2628 189.222 19.7567C189.243 20.258 189.1 20.7524 188.814 21.1642C188.529 21.576 188.117 21.8825 187.642 22.0368C188.223 22.2179 189.006 22.7302 189.006 24.4504V24.9246C189.006 25.5774 189.006 26.3327 189.155 26.7759H187.123C186.936 26.3565 186.907 25.6298 186.907 24.6315V24.4814C186.907 23.3734 186.594 22.8588 184.861 22.8588L183.248 22.8422ZM183.248 21.2768H185.228C186.54 21.2768 187.059 20.8217 187.059 19.9687C187.059 19.1157 186.468 18.6821 185.299 18.6821H183.248V21.2768Z" fill="#212121"/>
<path d="M199.388 22.5419H194.299V25.1628H199.908L199.651 26.7711H192.222V17.1215H199.614V18.7298H194.299V20.9408H199.388V22.5419Z" fill="#212121"/>
<path d="M145.869 43.5376H144.304C144.211 43.2082 144.155 42.8692 144.138 42.5273C143.571 43.2421 142.561 43.6948 141.019 43.6948C137.953 43.6948 136.255 41.579 136.255 38.8319C136.255 35.9322 138.086 33.7498 141.394 33.7498C144.069 33.7498 145.663 35.1197 145.923 36.778H143.789C143.552 36.0633 142.943 35.2913 141.368 35.2913C139.151 35.2913 138.472 36.9591 138.472 38.7437C138.472 40.4592 139.226 42.1294 141.37 42.1294C143.391 42.1294 143.789 40.8595 143.789 39.8683V39.7802H141.347V38.1719H145.869V43.5376Z" fill="#212121"/>
<path d="M151.24 39.6133V43.5376H149.146V33.888H153.704C155.988 33.888 157.214 35.034 157.214 36.5279C157.235 37.0292 157.092 37.5236 156.807 37.9354C156.522 38.3472 156.11 38.6538 155.635 38.808C156.213 38.9891 156.998 39.5037 156.998 41.2216V41.6863C156.998 42.3391 156.998 43.0944 157.148 43.5376H155.113C154.928 43.1182 154.899 42.3915 154.899 41.3932V41.2431C154.899 40.1352 154.586 39.6205 152.85 39.6205L151.24 39.6133ZM151.24 38.048H153.218C154.529 38.048 155.049 37.5929 155.049 36.74C155.049 35.887 154.461 35.4533 153.292 35.4533H151.24V38.048Z" fill="#212121"/>
<path d="M169.842 38.677C169.842 41.3574 168.099 43.6805 164.684 43.6805C161.4 43.6805 159.664 41.4813 159.664 38.7151C159.664 35.9489 161.561 33.7522 164.826 33.7522C167.9 33.7402 169.842 35.7369 169.842 38.677ZM161.876 38.677C161.876 40.5831 162.825 42.0842 164.765 42.0842C166.868 42.0842 167.63 40.4831 167.63 38.708C167.63 36.84 166.764 35.3509 164.736 35.3509C162.747 35.3461 161.876 36.7638 161.876 38.6722V38.677Z" fill="#212121"/>
<path d="M174.808 33.888V39.6491C174.808 41.5695 175.904 42.1294 177.08 42.1294C178.432 42.1294 179.302 41.479 179.302 39.6491V33.888H181.436V39.5514C181.436 42.8227 179.356 43.6733 177.039 43.6733C174.685 43.6733 172.652 42.7799 172.652 39.5991V33.8808L174.808 33.888Z" fill="#212121"/>
<path d="M184.827 33.888H189.141C191.356 33.888 192.859 35.0268 192.859 36.8472C192.859 38.9081 191.164 39.8755 189.082 39.8755H186.971V43.5376H184.837L184.827 33.888ZM186.962 38.3101H188.821C189.943 38.3101 190.687 37.8931 190.687 36.8805C190.687 35.8679 189.883 35.4509 188.871 35.4509H186.962V38.3101Z" fill="#212121"/>
<path d="M26.6339 22.2465V23.3902L16.3228 35.084H9.36729V18.0817H0V44.4906H20.5606L35.9965 27.0689V18.0745H26.6339V22.2465Z" fill="#212121"/>
<path d="M25.5597 3.36905C22.3226 1.34468 18.6154 0.204688 14.8051 0.0619503C14.677 2.32904e-06 9.74199 0 0 0V9.53046H14.3616C14.6723 9.53046 14.9829 9.56382 15.2888 9.59479H32.0741C30.3446 7.0978 28.1283 4.97977 25.5597 3.36905V3.36905Z" fill="#212121"/>
<path d="M43.59 44.4906H53.0142V27.1404H73.5131V18.0817H43.59V44.4906Z" fill="#212121"/>
<path d="M73.5107 0.0619507H43.6516V9.59479H73.5107V0.0619507Z" fill="#212121"/>
<path d="M112.699 9.59718V0H97.1376L88.4865 9.59718H101.439H112.699Z" fill="#212121"/>
<path d="M80.8385 18.0817L79.5508 19.5113V23.3902C79.5302 27.2072 80.5824 30.9524 82.5863 34.1953C84.5965 37.4764 87.4047 40.1896 90.7465 42.0794C94.0666 43.9931 97.8276 45 101.655 45C105.483 45 109.244 43.9931 112.564 42.0794C115.891 40.1651 118.678 37.4303 120.66 34.1333C122.675 30.8826 123.796 27.1535 123.909 23.3258V18.3033H101.691V27.331H113.396C112.889 29.6183 111.497 31.5244 109.22 33.0493C106.993 34.548 104.371 35.3452 101.691 35.339C99.5364 35.3416 97.4197 34.7711 95.5559 33.6854C93.6905 32.6378 92.1224 31.1288 91.0003 29.3014C89.827 27.4825 89.1906 25.3669 89.1648 23.1995L93.7915 18.0817H80.8385Z" fill="#212121"/>
</svg>
