<svg width="33" height="33" viewBox="0 0 33 33" fill="none" xmlns="http://www.w3.org/2000/svg">
<path d="M16.7321 30.2033C24.7966 30.2033 31.3337 23.6661 31.3337 15.6017C31.3337 7.53716 24.7966 1 16.7321 1C8.66759 1 2.13043 7.53716 2.13043 15.6017C2.13043 23.6661 8.66759 30.2033 16.7321 30.2033Z" fill="#ECF3FF" stroke="#ECF3FF" stroke-width="2"/>
<path d="M15.6017 31.3337C23.6661 31.3337 30.2033 24.7965 30.2033 16.732C30.2033 8.66753 23.6661 2.13037 15.6017 2.13037C7.53716 2.13037 1 8.66753 1 16.732C1 24.7965 7.53716 31.3337 15.6017 31.3337Z" stroke="#2979FF" stroke-width="2"/>
<path d="M2.46051 21.8324C4.38209 22.6026 5.76559 22.6026 6.6103 21.8324C7.87772 20.6759 6.78406 17.1686 8.55962 16.2013C10.3337 15.2339 13.0387 19.5217 15.5662 18.1112C18.0938 16.6999 15.3282 12.9371 17.0819 11.4119C18.8363 9.88605 21.117 11.6069 21.5157 9.05595C21.9143 6.50577 19.6554 7.61184 19.2217 5.20111C18.9334 3.59493 18.9334 2.75022 19.2217 2.66772" stroke="#2979FF" stroke-width="2" stroke-linecap="round"/>
<path d="M19.2674 30.8591C17.8992 29.4588 17.4064 28.1578 17.7897 26.9547C18.3643 25.1499 19.3127 25.2565 19.7259 24.1409C20.1391 23.0254 18.9717 21.436 21.5621 20.078C23.2894 19.1727 25.6651 20.2211 28.6869 23.2254" stroke="#2979FF" stroke-width="2" stroke-linecap="round"/>
</svg>
